<svg viewBox="0 0 72 72" fill="none" xmlns="http://www.w3.org/2000/svg">
<path fill-rule="evenodd" clip-rule="evenodd" d="M9.25 39.7705C11.081 53.4514 22.7359 64 36.8406 64C43.9662 64 50.4827 61.2975 55.4031 56.8685C58.6111 53.9808 58.8841 49.0244 56.0129 45.798C53.1416 42.5716 48.2134 42.2971 45.0053 45.1847C42.8329 47.1402 39.983 48.32 36.8406 48.32C30.0751 48.32 24.5906 42.8041 24.5906 36C24.5906 34.2649 24.9472 32.6136 25.5908 31.1162C21.047 32.2525 15.6167 34.8385 9.25 39.7705ZM48.3445 28.5886L55.9287 15.6509C58.6322 18.585 58.7186 23.1616 56.0129 26.2019C54.0249 28.4357 51.0509 29.2546 48.3445 28.5886Z" fill="white"/>
<path fill-rule="evenodd" clip-rule="evenodd" d="M54.6079 15.3919C44.5027 6.92603 33.0544 6.83326 24.1043 11.1827C15.076 15.5702 8.5 24.5329 8.5 33.9998C8.5 34.3892 8.72602 34.7432 9.07925 34.907C9.43249 35.0708 9.8487 35.0147 10.1459 34.7632C19.9901 26.4335 27.6159 23.7097 33.2014 23.4098C38.1587 23.1437 41.6181 24.7811 43.716 26.2839L40.7935 29.2064C39.3936 30.6063 40.3851 32.9999 42.3649 32.9999H58.7777C60.005 32.9999 60.9999 32.005 60.9999 30.7777V14.3649C60.9999 12.3851 58.6063 11.3936 57.2064 12.7935L54.6079 15.3919Z" fill="currentColor"/>
</svg>
