<svg width="72" height="72" viewBox="0 0 72 72" fill="none" xmlns="http://www.w3.org/2000/svg">
<path fill-rule="evenodd" clip-rule="evenodd" d="M9.25 39.7705C11.081 53.4514 22.7359 64 36.8406 64C43.9662 64 50.4827 61.2975 55.4031 56.8685C58.6111 53.9808 58.8841 49.0244 56.0129 45.798C53.1416 42.5716 48.2134 42.2971 45.0053 45.1847C42.8329 47.1402 39.983 48.32 36.8406 48.32C30.0751 48.32 24.5906 42.8041 24.5906 36C24.5906 34.2649 24.9472 32.6136 25.5908 31.1162C21.047 32.2525 15.6167 34.8385 9.25 39.7705ZM48.3445 28.5886L55.9287 15.6509C58.6322 18.585 58.7186 23.1616 56.0129 26.2019C54.0249 28.4357 51.0509 29.2546 48.3445 28.5886Z" fill="#18181B"/>
<path d="M61 30.7778V14.3649C61 12.3851 58.6063 11.3936 57.2064 12.7936L40.7936 29.2064C39.3936 30.6064 40.3851 33 42.3649 33H58.7778C60.0051 33 61 32.0051 61 30.7778Z" fill="#14B8A6"/>
<path d="M9.5 34.0002C29.4005 17.1614 40.8062 22.5844 45.0625 26.0556C46.1615 26.9518 47.8972 27.0032 48.8458 25.9491L54.5716 19.5871C55.3695 18.7005 55.3241 17.3301 54.423 16.5486C34.6362 -0.612267 9.5 15.9826 9.5 34.0002Z" fill="#14B8A6" stroke="#14B8A6" stroke-width="2" stroke-linecap="round" stroke-linejoin="round"/>
</svg>
